<?xml version="1.0" standalone="no"?><!DOCTYPE svg PUBLIC "-//W3C//DTD SVG 1.1//EN" "http://www.w3.org/Graphics/SVG/1.1/DTD/svg11.dtd"><svg t="1708495909543" class="icon" viewBox="0 0 1024 1024" version="1.1" xmlns="http://www.w3.org/2000/svg" p-id="9858" xmlns:xlink="http://www.w3.org/1999/xlink" width="64" height="64"><path d="M805.9904 231.936a466.8672 466.8672 0 0 0-156.7232-27.264 466.8672 466.8672 0 0 0-146.6112 23.7824 464.1536 464.1536 0 0 0-303.4368 3.4816l-19.9168 7.1168V805.376l40.1152-14.336a404.224 404.224 0 0 1 273.152 0l10.24 3.6096 10.24-3.6352a404.224 404.224 0 0 1 272.9984 0l40.192 14.464V239.1808z m-40.1152 490.0864a464.4608 464.4608 0 0 0-263.3216 8.9088 463.6928 463.6928 0 0 0-263.296-8.8576V282.0608a402.944 402.944 0 0 1 233.2672 0v273.792h59.9808V282.1376a402.944 402.944 0 0 1 233.2672 0z" fill="#3A3A3A" p-id="9859"></path></svg>