<?xml version="1.0" standalone="no"?><!DOCTYPE svg PUBLIC "-//W3C//DTD SVG 1.1//EN" "http://www.w3.org/Graphics/SVG/1.1/DTD/svg11.dtd"><svg t="1708495894042" class="icon" viewBox="0 0 1024 1024" version="1.1" xmlns="http://www.w3.org/2000/svg" p-id="8682" xmlns:xlink="http://www.w3.org/1999/xlink" width="64" height="64"><path d="M734.544 158.992h1.04c96.864 0 207.232 44.688 207.232 228.192 0 93.456-74.224 197.008-161.072 286.24l-245.184-238.4c-0.992-0.336-1.616-1.072-2.32-1.792a17.504 17.504 0 0 0-12.256-4.928c-4.624 0-9.04 1.776-12.256 4.928-3.792 3.744-5.6 8.896-4.912 14.048 0.688 5.152 3.808 9.712 8.464 12.432l130.24 126.64 114.192 111.04c-14.848 14.4-30.048 28.48-45.6 42.208l-12.384-12.032-131.296-127.68h-0.032c-0.544-0.56-1.056-1.168-1.616-1.744a17.504 17.504 0 0 0-12.256-4.928c-4.624 0-9.04 1.776-12.256 4.928a16.56 16.56 0 0 0 0 23.856l144.032 139.904c-14.112 11.92-27.984 23.216-41.344 33.792l-12.384-12.064-131.312-127.68c-0.544-0.608-1.072-1.28-1.728-1.872a17.504 17.504 0 0 0-12.256-4.928c-4.624 0-9.04 1.776-12.256 4.928a16.688 16.688 0 0 0-5.008 13.152c0.368 4.864 2.912 9.328 6.96 12.32l140.848 137.136a1765.984 1765.984 0 0 1-44.512 32.72l-141.008-137.136c-0.992-0.352-1.616-1.104-2.32-1.792a17.504 17.504 0 0 0-12.256-4.928c-4.624 0-9.04 1.776-12.256 4.928a16.592 16.592 0 0 0-4.896 14.048c0.688 5.136 3.792 9.712 8.432 12.448l135.888 132.16c-20.928 14.24-33.584 22.064-33.584 22.064S81.168 612.624 81.168 387.184c0-182.896 110.048-227.632 205.488-227.632h1.28c91.68 0 170.992 65.6 205.312 98.88-0.128 0.128 145.648 150.544 205.728 212.496 2.08 2.144 4.128 4.064 6.08 5.728 1.456 2.672 3.648 4.944 6.336 6.544 4.24 4.224 9.28 6.24 14.08 6.24a16.736 16.736 0 0 0 16.672-18.64 17.024 17.024 0 0 0-8.16-12.416 19.568 19.568 0 0 0-5.744-4.576 71.552 71.552 0 0 0-19.712-14.32c-51.168-52.784-143.008-147.488-179.632-185.328 7.76-5.552 34.208-24.544 49.28-37.072 40.304-29.232 95.472-58.096 156.368-58.096m0-32c-57.488 0-116.416 21.6-175.152 64.208l-0.848 0.624-0.8 0.672c-9.472 7.856-26.768 20.864-47.456 35.648l-1.408 1.008c-43.536-40.656-124.848-101.584-220.944-101.584h-1.488c-71.184 0-237.264 25.296-237.264 259.632 0 240.08 426.64 519.088 444.8 530.848l16.992 11.008 17.216-10.64c0.544-0.336 13.504-8.352 34.768-22.832l7.056-4.8 0.176 0.176 9.504-6.768 15.68-10.672-0.288-0.288c14.752-10.544 28.576-20.736 42.176-31.072l5.392-4.096 0.192 0.192 10.272-8.128 13.728-10.432-0.256-0.24a1755.36 1755.36 0 0 0 40.416-33.072l3.936-3.312 0.192 0.192 8.96-7.92 13.904-11.728-0.288-0.288a1385.104 1385.104 0 0 0 46.336-42.896l2.064-2 0.304 0.288 10.16-10.448 11.12-10.784-0.32-0.304 1.344-1.376c112.896-116 170.144-219.808 170.144-308.56 0-234.832-167.296-260.192-239.232-260.192l-1.088-0.064z" fill="#837A7A" p-id="8683"></path></svg>