<svg xmlns="http://www.w3.org/2000/svg" width="240" height="240" viewBox="0 0 240 240">
  <g id="组_111" data-name="组 111" transform="translate(-5367 -1380)">
    <rect id="矩形_466" data-name="矩形 466" width="240" height="240" transform="translate(5367 1380)" fill="#fff" opacity="0"/>
    <g id="Page-1" transform="translate(5378.8 1409.8)">
      <g id="空白页" transform="translate(14.2 9.2)">
        <g id="暂无相关搜索" transform="translate(0 0)">
          <g id="分组" transform="translate(0 0)">
            <g id="背景_线" data-name="背景/线">
              <g id="_-" data-name="-">
                <g id="编组" transform="translate(0 0)">
                  <path id="Path-2" d="M1.608,146.926a1.608,1.608,0,1,1,0-3.216H142.3a1.608,1.608,0,1,1,0,3.216Zm148.734,0a1.608,1.608,0,1,1,0-3.216h5.025a1.608,1.608,0,1,1,0,3.216Zm18.089,0a1.608,1.608,0,1,1,0-3.216h18.089a1.608,1.608,0,0,1,0,3.216ZM47.836,162a1.608,1.608,0,1,1,0-3.216H61.906a1.608,1.608,0,0,1,0,3.216Zm23.114,0a1.608,1.608,0,1,1,0-3.216h61.3a1.608,1.608,0,0,1,0,3.216Zm89.844-55.876a1.608,1.608,0,1,1,3.216,0v6.03a1.608,1.608,0,0,1-1.608,1.608h-6.03a1.608,1.608,0,1,1,0-3.216h4.422Zm3.216,12.06a1.608,1.608,0,1,1-3.216,0v-6.03a1.608,1.608,0,0,1,1.608-1.608h6.03a1.608,1.608,0,1,1,0,3.216H164.01ZM8.04,57.886a1.608,1.608,0,1,1,3.216,0v6.03a1.608,1.608,0,0,1-1.608,1.608H3.618a1.608,1.608,0,1,1,0-3.216H8.04ZM156.975,7.035H162.4a1.608,1.608,0,1,1,0,3.216h-5.427v5.427a1.608,1.608,0,1,1-3.216,0V10.251h-5.427a1.608,1.608,0,1,1,0-3.216h5.427V1.608a1.608,1.608,0,1,1,3.216,0ZM11.256,69.945a1.608,1.608,0,1,1-3.216,0v-6.03a1.608,1.608,0,0,1,1.608-1.608h6.03a1.608,1.608,0,1,1,0,3.216H11.256Z" transform="translate(0 0)" fill="#c3cbd6"/>
                  <path id="Path复制" d="M16.392,114.163a1,1,0,0,1,1.421,1.421l-2.132,2.132a1,1,0,0,1-1.421,0l-2.132-2.132a1,1,0,0,1,1.421-1.421l1.421,1.421Zm-2.842,5.685a1,1,0,0,1-1.421-1.421l2.132-2.132a1,1,0,0,1,1.421,0l2.132,2.132a1,1,0,0,1-1.421,1.421l-1.421-1.421ZM34.137,8.957a1,1,0,0,1,1.421,1.421L33.426,12.51a1,1,0,0,1-1.421,0l-2.132-2.132a1,1,0,0,1,1.421-1.421l1.421,1.421Zm-2.842,5.685a1,1,0,1,1-1.421-1.421L32,11.089a1,1,0,0,1,1.421,0l2.132,2.132a1,1,0,1,1-1.421,1.421l-1.421-1.421Z" transform="translate(11.933 8.73)" fill="#c3cbd6"/>
                </g>
              </g>
            </g>
            <g id="Group-6" transform="translate(45.826 39.797)">
              <g id="分组-2" data-name="分组" transform="translate(0 0)">
                <path id="矩形" d="M6.03,0H70.347a6.03,6.03,0,0,1,6.03,6.03V84.417a6.03,6.03,0,0,1-6.03,6.03H6.03A6.03,6.03,0,0,1,0,84.417V6.03A6.03,6.03,0,0,1,6.03,0Z" transform="translate(0 0)" fill="#fff" stroke="#c3cbd6" stroke-width="1.6" fill-rule="evenodd"/>
                <path id="Stroke-16" d="M7.8,40.939h0Zm0-14.069h0ZM7.8,12.8h0Z" transform="translate(7.877 12.927)" fill="none" stroke="#c3cbd6" stroke-linecap="round" stroke-linejoin="round" stroke-width="1.4" fill-rule="evenodd"/>
              </g>
              <g id="分组-2-2" data-name="分组-2" transform="translate(30.149 8.04)">
                <path id="矩形-2" data-name="矩形" d="M.016,0h12.06L12.06,21.913a6.034,6.034,0,0,1-6.034,6.03h0A6.025,6.025,0,0,1,0,21.917v0Z" transform="translate(46.142 57.896) rotate(-42)" fill="#f5f7f9" stroke="#c3cbd6" stroke-width="1.6" fill-rule="evenodd"/>
                <circle id="椭圆形" cx="33.164" cy="33.164" r="33.164" fill="#f5f7f9" stroke="#c3cbd6" stroke-width="1.6"/>
                <circle id="椭圆形-copy" cx="25.124" cy="25.124" r="25.124" transform="translate(8.04 8.04)" fill="#fff" stroke="#c3cbd6" stroke-width="1.6"/>
                <path id="_" data-name="？" d="M23.209,28.668a14.306,14.306,0,0,1-4.378,0c-.543-.233-.6-.513-.6-1.387a6.278,6.278,0,0,1,1.327-4.462c.724-.844.965-1.025,3.105-2.321,1.477-.874,1.96-1.507,1.96-2.5,0-1.417-1.055-2.261-2.864-2.261a3.186,3.186,0,0,0-2.924,1.417,2.8,2.8,0,0,0-.543,1.839c-.06,1.178-6.4,1.507-6.211-.573a7.156,7.156,0,0,1,1.93-4.613c1.749-1.99,4.432-3.015,7.9-3.015,5.547,0,9.015,2.623,9.015,6.783a5.679,5.679,0,0,1-1.869,4.432,20.464,20.464,0,0,1-3.648,2.5,3.116,3.116,0,0,0-1.718,2.985C23.684,27.854,23.82,28.452,23.209,28.668Zm-2.4,2.05h.362a2.849,2.849,0,0,1,2.849,2.849h0a2.849,2.849,0,0,1-2.849,2.849h-.362a2.849,2.849,0,0,1-2.849-2.849h0A2.849,2.849,0,0,1,20.805,30.718Z" transform="translate(12.193 10.897)" fill="#c3cbd6"/>
              </g>
            </g>
          </g>
        </g>
      </g>
    </g>
  </g>
</svg>
