<?xml version="1.0" standalone="no"?><!DOCTYPE svg PUBLIC "-//W3C//DTD SVG 1.1//EN" "http://www.w3.org/Graphics/SVG/1.1/DTD/svg11.dtd"><svg t="1708495818395" class="icon" viewBox="0 0 1024 1024" version="1.1" xmlns="http://www.w3.org/2000/svg" p-id="7630" xmlns:xlink="http://www.w3.org/1999/xlink" width="64" height="64"><path d="M195.5 97.9h631.2l99.6 315.6H95.9l99.6-315.6z" p-id="7631"></path><path d="M419.8 612.8h182.7c36.7 0 66.4-29.7 66.4-66.4S639.2 480 602.5 480H419.8c-36.7 0-66.4 29.7-66.4 66.4 0 36.6 29.7 66.4 66.4 66.4z m0-99.7h182.7c18.3 0 33.2 14.9 33.2 33.2s-14.9 33.2-33.2 33.2H419.8c-18.3 0-33.2-14.9-33.2-33.2 0-18.3 14.9-33.2 33.2-33.2z m407 141.2h-66.4c-9.2 0-16.6 7.4-16.6 16.6 0 9.2 7.4 16.6 16.6 16.6h66.4c9.2 0 16.6-7.4 16.6-16.6 0-9.2-7.5-16.6-16.6-16.6z m0 83.1H644c-9.2 0-16.6 7.4-16.6 16.6 0 9.2 7.4 16.6 16.6 16.6h182.7c9.2 0 16.6-7.4 16.6-16.6 0.1-9.1-7.4-16.6-16.5-16.6zM860 131.1c-5.2-18.8-14.9-33.2-33.2-33.2H195.6c-18.3 0-28.5 14.4-33.2 33.2L95.9 413.5V862c0 36.7 29.7 66.4 66.4 66.4H860c36.7 0 66.4-29.7 66.4-66.4V413.5L860 131.1z m33.2 714.3c0 27.5-22.3 49.8-49.8 49.8H178.9c-27.5 0-49.8-22.3-49.8-49.8V413.5l35.3-141.2h155.7l8.3-33.2H172.7l22.8-91.3c0-9.2 7.4-16.6 16.6-16.6H810c9.2 0 16.6 7.4 16.6 16.6l22.8 91.3H693.8l8.3 33.2h155.7l35.3 141.2v431.9z m-66.4-41.5H378.3c-9.2 0-16.6 7.4-16.6 16.6 0 9.2 7.4 16.6 16.6 16.6h448.5c9.2 0 16.6-7.4 16.6-16.6 0-9.2-7.5-16.6-16.6-16.6z" p-id="7632"></path></svg>