<?xml version="1.0" standalone="no"?><!DOCTYPE svg PUBLIC "-//W3C//DTD SVG 1.1//EN" "http://www.w3.org/Graphics/SVG/1.1/DTD/svg11.dtd"><svg t="1708495619504" class="icon" viewBox="0 0 1024 1024" version="1.1" xmlns="http://www.w3.org/2000/svg" p-id="5175" xmlns:xlink="http://www.w3.org/1999/xlink" width="64" height="64"><path d="M884.053333 440.576a85.333333 85.333333 0 0 1 85.333334 85.333333v232.533334a85.333333 85.333333 0 0 1-85.333334 85.333333h-725.333333a85.333333 85.333333 0 0 1-85.333333-85.333333v-232.533334a85.333333 85.333333 0 0 1 85.333333-85.333333h725.333333z m0 64h-725.333333a21.333333 21.333333 0 0 0-21.034667 17.493333l-0.341333 3.84v232.533334a21.333333 21.333333 0 0 0 17.493333 20.992l3.84 0.341333h725.333334a21.333333 21.333333 0 0 0 20.992-17.493333l0.341333-3.84v-232.533334a21.333333 21.333333 0 0 0-17.493333-20.992l-3.84-0.341333z" fill="#9A9A9E" p-id="5176"></path><path d="M319.744 574.976a67.2 67.2 0 1 1 0 134.4 67.2 67.2 0 0 1 0-134.4zM722.944 574.976a67.2 67.2 0 1 1 0 134.4 67.2 67.2 0 0 1 0-134.4zM274.944 789.333333a32 32 0 0 1 31.744 27.733334l0.256 4.266666v89.6a32 32 0 0 1-63.701333 4.394667l-0.298667-4.352v-89.6a32 32 0 0 1 32-32zM767.744 789.333333a32 32 0 0 1 31.744 27.733334l0.256 4.266666v89.6a32 32 0 0 1-63.701333 4.394667l-0.298667-4.352v-89.6a32 32 0 0 1 32-32zM779.306667 148.565333a42.666667 42.666667 0 0 1 41.386666 32.256l68.096 270.293334a42.666667 42.666667 0 0 1-41.386666 53.077333H195.328a42.666667 42.666667 0 0 1-41.386667-53.077333l68.096-270.293334a42.666667 42.666667 0 0 1 41.386667-32.256h515.882667z m-16.64 64H279.978667L222.72 440.149333h597.333333l-57.386666-227.584z" fill="#9A9A9E" p-id="5177"></path></svg>